<?xml version="1.0" standalone="no"?>
<!DOCTYPE svg PUBLIC "-//W3C//DTD SVG 20010904//EN"
 "http://www.w3.org/TR/2001/REC-SVG-20010904/DTD/svg10.dtd">
<svg version="1.0" xmlns="http://www.w3.org/2000/svg"
 width="460.000000pt" height="460.000000pt" viewBox="0 0 460.000000 460.000000"
 preserveAspectRatio="xMidYMid meet">
<metadata>
Created by potrace 1.11, written by Peter Selinger 2001-2013
</metadata>
<g transform="translate(0.000000,460.000000) scale(0.100000,-0.100000)"
fill="#000000" stroke="none">
<path d="M2285 4249 c-27 -4 -74 -11 -102 -15 -29 -4 -53 -11 -53 -15 0 -5
-18 -9 -39 -9 -22 0 -43 -4 -46 -10 -3 -5 -21 -10 -40 -10 -19 0 -37 -4 -40
-10 -3 -5 -14 -9 -23 -9 -15 1 -15 2 1 6 9 2 17 11 17 19 0 9 11 14 30 14 17
0 30 5 30 10 0 6 -20 10 -45 10 -25 0 -45 -4 -45 -10 0 -5 -24 -10 -54 -10
-30 0 -57 -4 -60 -9 -4 -5 -24 -12 -46 -16 -22 -4 -40 -11 -40 -16 0 -5 -11
-9 -25 -9 -14 0 -25 -4 -25 -10 0 -5 -9 -10 -20 -10 -11 0 -20 -4 -20 -10 0
-5 -7 -10 -15 -10 -8 0 -15 -6 -15 -12 0 -7 -16 -26 -35 -43 -19 -16 -35 -36
-35 -43 0 -13 -23 -42 -34 -42 -10 0 -7 31 6 67 6 18 8 36 4 40 -5 5 -11 2
-13 -4 -3 -7 -11 -13 -19 -13 -8 0 -14 -9 -14 -20 0 -11 -4 -20 -10 -20 -5 0
-10 -11 -10 -25 0 -14 -4 -25 -10 -25 -6 0 -10 -30 -10 -70 0 -40 4 -70 10
-70 6 0 10 -11 10 -25 0 -14 5 -25 10 -25 6 0 10 -4 10 -10 0 -5 -11 -10 -24
-10 -14 0 -28 5 -31 10 -3 6 -37 10 -76 10 -39 0 -69 -4 -69 -10 0 -5 -13 -10
-30 -10 -16 0 -30 -4 -30 -10 0 -6 28 -10 65 -10 51 0 69 -4 84 -19 23 -23 11
-31 -50 -31 -21 0 -39 -4 -39 -10 0 -5 -11 -10 -25 -10 -14 0 -25 -4 -25 -9 0
-5 -9 -12 -19 -16 -11 -3 -48 -33 -82 -66 -51 -49 -60 -62 -48 -70 11 -8 11
-12 2 -16 -7 -2 -13 -11 -13 -19 0 -8 -4 -14 -10 -14 -14 0 -13 -37 1 -42 8
-3 8 -10 -2 -25 -11 -18 -11 -26 1 -47 10 -20 11 -31 2 -51 -16 -36 -16 -73 0
-57 22 22 28 13 28 -42 0 -34 5 -57 13 -60 10 -5 10 -7 0 -12 -15 -7 -18 -91
-3 -96 5 -1 13 -45 16 -95 4 -51 11 -93 15 -93 5 0 9 -16 9 -35 0 -19 5 -35
10 -35 6 0 10 -16 10 -35 0 -19 4 -35 8 -35 12 0 36 -105 28 -119 -4 -6 -14
-11 -22 -11 -8 0 -14 -7 -14 -15 0 -9 9 -15 21 -15 28 0 49 -23 49 -54 0 -14
5 -26 10 -26 6 0 10 18 10 40 l0 40 60 0 60 0 0 -45 c0 -25 5 -45 10 -45 6 0
10 -16 10 -35 0 -19 4 -35 9 -35 5 0 11 -9 13 -20 2 -12 7 -21 13 -21 16 -1
17 18 0 34 -8 9 -15 29 -15 46 0 17 -4 31 -10 31 -6 0 -10 47 -10 120 0 107 2
122 20 140 11 11 27 20 35 20 8 0 15 5 15 10 0 6 11 10 25 10 14 0 25 5 25 10
0 6 -11 10 -25 10 -14 0 -25 -4 -25 -10 0 -5 -9 -10 -20 -10 -11 0 -20 -4 -20
-10 0 -5 -7 -10 -15 -10 -8 0 -15 -7 -15 -15 0 -8 -4 -15 -10 -15 -6 0 -10
-28 -10 -65 0 -63 -1 -65 -25 -65 -14 0 -25 5 -25 10 0 6 -16 10 -36 10 -33 0
-36 2 -30 23 6 19 22 157 43 360 3 31 9 57 14 57 5 0 9 16 9 35 0 23 -5 35
-14 35 -9 0 -12 7 -9 20 3 11 8 20 12 20 3 0 12 9 19 21 12 19 11 20 -10 15
-13 -3 -17 -3 -10 0 6 3 12 12 12 19 0 7 11 27 25 43 29 35 31 42 10 42 -8 0
-15 3 -15 6 0 12 34 64 42 64 4 0 8 14 8 30 0 30 37 80 60 80 5 0 10 7 10 15
0 8 5 15 10 15 6 0 10 5 10 10 0 6 -9 10 -20 10 -11 0 -20 5 -20 10 0 6 9 10
20 10 11 0 20 4 20 9 0 5 11 12 25 15 21 5 25 12 25 41 0 27 4 35 18 35 24 1
52 24 52 44 0 19 4 20 31 4 17 -10 23 -10 26 0 6 15 119 17 128 2 3 -5 44 -10
91 -10 49 0 84 4 84 10 0 6 11 10 25 10 14 0 25 -4 25 -10 0 -5 13 -10 29 -10
17 0 33 -4 36 -10 3 -5 22 -10 41 -10 31 0 34 2 34 30 0 17 5 30 10 30 6 0 10
-4 10 -10 0 -5 6 -10 14 -10 8 0 16 -6 18 -12 3 -9 9 -8 22 5 19 19 32 22 40
9 6 -11 64 -3 72 9 7 12 44 11 44 -1 0 -14 87 -13 92 2 3 8 41 13 114 15 63 1
110 7 112 13 4 12 122 14 122 1 0 -5 -12 -12 -27 -16 -26 -7 -26 -8 -8 -15 51
-19 94 -30 118 -30 15 0 27 -4 27 -10 0 -5 9 -10 21 -10 11 0 27 -6 34 -12 35
-32 45 -38 59 -38 19 0 106 -87 126 -126 8 -16 21 -35 28 -42 6 -7 12 -25 12
-38 0 -14 4 -22 10 -19 6 3 10 24 10 46 0 21 3 39 6 39 17 0 44 -47 44 -77 0
-18 5 -33 10 -33 6 0 10 -16 10 -35 0 -19 5 -35 10 -35 6 0 10 -9 10 -21 0
-11 7 -27 15 -35 8 -9 15 -20 15 -25 0 -5 -7 -9 -15 -9 -8 0 -15 -7 -15 -15 0
-8 3 -15 8 -15 4 0 14 -13 23 -28 15 -27 15 -30 0 -40 -14 -10 -14 -12 -1 -21
11 -8 12 -13 3 -19 -13 -8 -6 -52 8 -52 5 0 9 -4 9 -10 0 -5 -7 -10 -16 -10
-15 0 -16 -10 -11 -85 3 -46 11 -93 16 -104 6 -11 11 -45 11 -75 0 -31 5 -56
10 -56 6 0 10 -20 10 -45 l0 -45 -60 0 -60 0 0 55 c0 30 -4 55 -10 55 -5 0
-10 9 -10 20 0 11 -4 20 -10 20 -5 0 -10 -9 -10 -20 0 -11 5 -20 10 -20 6 0
10 -48 10 -125 0 -77 -4 -125 -10 -125 -5 0 -10 -16 -10 -35 0 -19 5 -35 10
-35 6 0 10 16 10 35 0 19 5 35 10 35 6 0 10 18 10 39 0 57 8 71 41 71 29 0 38
-3 89 -30 17 -9 25 -10 28 -1 2 6 28 11 63 11 32 0 59 3 59 6 0 15 -32 34 -59
34 l-31 0 0 60 c0 33 4 60 10 60 6 0 10 33 10 79 0 61 3 80 15 85 8 3 15 18
15 34 0 15 5 33 11 39 8 8 8 13 0 17 -14 9 -15 66 -1 66 6 0 10 20 10 44 0 25
-4 48 -10 51 -19 12 -11 45 10 45 11 0 20 7 20 15 0 8 -4 15 -10 15 -5 0 -10
14 -10 31 0 26 3 31 20 26 21 -5 29 16 10 28 -5 3 -10 46 -10 96 0 53 -4 89
-10 89 -5 0 -10 9 -10 20 0 11 -4 20 -8 20 -4 0 -16 23 -27 50 -11 28 -23 50
-27 50 -4 0 -8 11 -8 25 0 14 -4 25 -10 25 -5 0 -10 9 -10 19 0 11 -7 26 -15
35 -8 8 -15 19 -15 25 0 6 -4 11 -10 11 -5 0 -10 9 -10 20 0 11 -4 20 -10 20
-5 0 -10 6 -10 13 0 7 -11 24 -25 39 -14 15 -25 34 -25 43 0 8 -4 15 -10 15
-5 0 -10 6 -10 13 0 8 -11 20 -25 27 -14 7 -25 17 -25 22 0 18 -120 128 -140
128 -11 0 -20 3 -20 8 0 10 -58 42 -76 42 -8 0 -14 5 -14 10 0 6 -16 10 -35
10 -19 0 -35 4 -35 9 0 4 -19 11 -42 14 -24 4 -63 11 -88 16 -25 6 -73 10
-107 11 -35 0 -63 4 -63 10 0 6 -40 10 -100 10 -96 0 -126 10 -77 26 l22 8
-25 7 c-32 9 -92 8 -155 -2z"/>
<path d="M1510 2975 c-7 -8 -17 -15 -22 -15 -23 0 -78 -77 -78 -110 0 -28 5
-27 55 18 7 6 23 12 34 12 12 0 21 5 21 10 0 6 45 10 115 10 70 0 115 -4 115
-10 0 -5 24 -10 54 -10 30 0 57 -4 60 -9 4 -5 24 -12 46 -16 22 -4 40 -11 40
-16 0 -5 20 -9 45 -9 25 0 45 -4 45 -10 0 -5 16 -10 35 -10 32 0 35 2 35 30 0
17 -4 30 -10 30 -5 0 -10 5 -10 11 0 17 -27 39 -49 39 -12 0 -21 5 -21 10 0 6
-20 10 -45 10 -25 0 -45 5 -45 10 0 6 -23 10 -50 10 -28 0 -67 7 -87 15 -25
10 -71 15 -153 15 -92 0 -120 -3 -130 -15z"/>
<path d="M2665 2930 c-3 -5 -31 -10 -61 -10 -30 0 -54 -4 -54 -9 0 -5 -9 -13
-20 -16 -16 -5 -20 -15 -20 -46 0 -38 1 -39 35 -39 19 0 35 5 35 10 0 6 31 10
74 10 49 0 76 4 78 12 6 18 350 18 355 1 3 -7 13 -13 23 -13 10 0 22 -4 25
-10 10 -15 35 -12 35 5 0 19 -77 95 -96 95 -8 0 -14 5 -14 10 0 6 -71 10 -194
10 -119 0 -197 -4 -201 -10z"/>
<path d="M1655 2801 c-199 -8 -141 -21 96 -21 126 0 199 -4 199 -10 0 -5 14
-10 31 -10 17 0 37 -7 45 -15 9 -8 25 -15 38 -15 12 0 28 -9 36 -20 8 -11 20
-20 27 -20 7 0 13 -11 13 -24 0 -13 6 -27 13 -29 8 -4 9 -8 2 -14 -23 -19 -35
-62 -23 -88 6 -14 15 -25 20 -25 4 0 8 -20 8 -45 0 -25 -4 -45 -10 -45 -5 0
-10 -19 -10 -42 -1 -40 -17 -78 -34 -78 -11 0 -36 -27 -36 -39 0 -6 -11 -11
-25 -11 -14 0 -25 -4 -25 -10 0 -6 -33 -10 -80 -10 -47 0 -80 -4 -80 -10 0 -6
33 -10 80 -10 47 0 80 4 80 10 0 6 9 10 21 10 11 0 42 22 70 50 44 44 49 54
49 94 0 24 4 46 9 48 5 2 11 30 12 63 3 104 7 115 40 115 16 0 29 5 29 10 0 6
20 10 45 10 25 0 45 -4 45 -10 0 -5 16 -10 36 -10 48 0 64 -19 64 -74 0 -25 5
-46 10 -46 6 0 10 -20 10 -45 0 -25 5 -45 10 -45 14 0 13 87 -2 92 -8 3 -7 11
5 28 18 26 23 86 8 92 -14 5 -25 88 -12 88 6 0 11 -4 11 -10 0 -5 7 -10 15
-10 18 0 20 17 3 22 -17 6 14 38 37 38 8 0 18 7 21 15 4 10 20 15 50 15 24 0
44 5 44 10 0 6 34 10 81 10 105 0 102 20 -5 24 -58 2 -79 0 -83 -11 -3 -8 -21
-13 -49 -13 -24 0 -44 -4 -44 -10 0 -5 -7 -10 -16 -10 -25 0 -94 -76 -94 -103
0 -31 -10 -40 -27 -25 -21 17 -157 23 -192 8 -25 -10 -33 -10 -46 3 -8 9 -15
25 -15 37 0 22 -35 59 -57 60 -7 0 -13 5 -13 10 0 6 -11 10 -25 10 -14 0 -25
5 -25 10 0 6 -18 10 -39 10 -22 0 -41 5 -44 13 -5 14 -91 16 -302 8z"/>
<path d="M2933 2793 c9 -2 23 -2 30 0 6 3 -1 5 -18 5 -16 0 -22 -2 -12 -5z"/>
<path d="M2990 2790 c0 -5 5 -10 10 -10 6 0 10 5 10 10 0 6 -4 10 -10 10 -5 0
-10 -4 -10 -10z"/>
<path d="M3040 2790 c0 -5 5 -10 10 -10 6 0 10 5 10 10 0 6 -4 10 -10 10 -5 0
-10 -4 -10 -10z"/>
<path d="M3170 2750 c0 -5 7 -10 15 -10 8 0 15 5 15 10 0 6 -7 10 -15 10 -8 0
-15 -4 -15 -10z"/>
<path d="M1646 2705 c-11 -8 -28 -15 -38 -15 -10 0 -18 -4 -18 -10 0 -5 -5
-10 -11 -10 -14 0 -39 -25 -39 -39 0 -6 -4 -11 -10 -11 -5 0 -10 -4 -10 -10 0
-5 9 -10 20 -10 22 0 70 41 70 60 0 5 20 10 45 10 25 0 45 5 45 10 0 6 38 10
95 10 57 0 95 -4 95 -10 0 -5 13 -10 29 -10 16 0 31 -6 35 -15 3 -8 15 -15 26
-15 11 0 20 -4 20 -10 0 -5 7 -10 15 -10 8 0 15 -4 15 -10 0 -5 9 -10 20 -10
11 0 20 5 20 10 0 6 -4 10 -10 10 -5 0 -10 7 -10 15 0 8 -8 15 -18 15 -10 0
-28 9 -40 20 -12 11 -30 20 -41 20 -11 0 -26 7 -35 15 -21 21 -242 21 -270 0z"/>
<path d="M2690 2680 c0 -5 -16 -10 -35 -10 -19 0 -35 -4 -35 -10 0 -5 -8 -10
-18 -10 -27 0 -72 -23 -72 -37 0 -7 11 -13 25 -13 14 0 25 5 25 10 0 6 14 10
30 10 17 0 30 5 30 10 0 6 45 10 115 10 70 0 115 -4 115 -10 0 -5 16 -10 35
-10 19 0 35 -4 35 -10 0 -5 5 -10 10 -10 11 0 90 -74 90 -84 0 -15 -25 -3 -52
26 -33 36 -71 58 -99 58 -11 0 -19 5 -19 10 0 6 -25 10 -55 10 -30 0 -55 -4
-55 -10 0 -5 -11 -10 -25 -10 -16 0 -25 -6 -25 -15 0 -12 -10 -14 -55 -9 -47
6 -55 4 -55 -10 0 -10 -9 -16 -25 -16 -14 0 -25 -4 -25 -10 0 -5 11 -10 25
-10 14 0 25 -4 25 -10 0 -5 9 -10 19 -10 10 0 22 -7 25 -16 4 -12 15 -15 36
-12 20 3 30 0 30 -9 0 -7 11 -13 25 -13 14 0 25 -4 25 -9 0 -4 35 -11 78 -14
60 -4 83 -1 105 11 15 9 27 20 27 24 0 4 9 8 20 8 11 0 20 -4 20 -10 0 -5 7
-10 16 -10 9 0 22 -7 28 -15 15 -20 56 -8 56 16 0 12 -10 21 -25 25 -27 7 -32
19 -12 28 10 5 10 7 0 12 -7 3 -13 10 -13 15 0 13 -46 59 -60 59 -5 0 -10 5
-10 11 0 18 -32 38 -62 39 -16 0 -28 5 -28 10 0 6 -30 10 -70 10 -40 0 -70 4
-70 10 0 6 -16 10 -35 10 -19 0 -35 -4 -35 -10z m31 -142 c-6 -29 -11 -33 -37
-30 -33 3 -84 24 -84 33 0 10 28 19 43 14 6 -3 26 -1 42 4 17 5 33 10 36 10 4
1 3 -14 0 -31z m226 -3 c17 -18 11 -45 -12 -45 -10 0 -15 10 -15 30 0 34 5 37
27 15z m-117 -15 c0 -5 -4 -10 -10 -10 -5 0 -10 5 -10 10 0 6 5 10 10 10 6 0
10 -4 10 -10z"/>
<path d="M1700 2660 c0 -5 -6 -10 -14 -10 -18 0 -76 -32 -76 -42 0 -5 -7 -8
-15 -8 -8 0 -15 -4 -15 -10 0 -5 -9 -10 -20 -10 -11 0 -20 -4 -20 -10 0 -5
-11 -10 -24 -10 -30 0 -37 -9 -29 -38 6 -26 37 -29 59 -7 17 17 64 21 64 5 0
-5 11 -12 25 -16 14 -3 25 -10 25 -15 0 -5 45 -9 100 -9 57 0 100 4 100 10 0
5 27 12 60 16 71 8 70 24 -2 24 -42 0 -49 3 -44 16 3 9 6 24 6 35 0 10 7 19
15 19 8 0 15 -4 15 -10 0 -5 9 -10 20 -10 11 0 23 -7 26 -15 4 -8 14 -15 24
-15 10 0 20 -6 23 -12 2 -8 8 -9 13 -4 5 5 4 11 -3 13 -7 3 -13 11 -13 19 0 8
-9 14 -20 14 -11 0 -20 5 -20 10 0 6 -7 10 -15 10 -8 0 -15 3 -15 8 0 10 -58
42 -76 42 -8 0 -14 5 -14 10 0 6 -30 10 -70 10 -40 0 -70 -4 -70 -10z m-20
-85 c0 -33 -4 -45 -15 -45 -8 0 -15 5 -15 10 0 6 -9 10 -20 10 -11 0 -20 5
-20 11 0 14 25 39 39 39 6 0 11 5 11 10 0 6 5 10 10 10 6 0 10 -20 10 -45z
m110 -5 c0 -5 -4 -10 -10 -10 -5 0 -10 5 -10 10 0 6 5 10 10 10 6 0 10 -4 10
-10z"/>
<path d="M3387 2463 c-11 -10 -8 -143 3 -143 6 0 10 32 10 75 0 75 -1 81 -13
68z"/>
<path d="M1200 2370 c0 -38 -4 -70 -9 -70 -16 0 -20 -93 -5 -124 8 -16 14 -42
14 -58 0 -15 5 -28 10 -28 6 0 10 65 10 175 0 110 -4 175 -10 175 -6 0 -10
-30 -10 -70z"/>
<path d="M1060 2380 c0 -5 14 -10 30 -10 17 0 30 5 30 10 0 6 -13 10 -30 10
-16 0 -30 -4 -30 -10z"/>
<path d="M1123 2355 c-7 -8 -13 -19 -13 -25 0 -5 -7 -10 -15 -10 -8 0 -15 -4
-15 -10 0 -5 7 -10 15 -10 8 0 15 5 15 10 0 6 9 10 20 10 11 0 20 -4 20 -10 0
-5 5 -10 10 -10 15 0 12 39 -4 56 -17 17 -18 17 -33 -1z"/>
<path d="M2490 2350 c0 -11 5 -20 10 -20 6 0 10 -5 10 -11 0 -6 6 -17 14 -25
17 -16 36 -19 36 -4 0 6 -7 10 -15 10 -8 0 -15 7 -15 15 0 8 -4 15 -10 15 -5
0 -10 9 -10 20 0 11 -4 20 -10 20 -5 0 -10 -9 -10 -20z"/>
<path d="M3200 2341 c0 -12 -5 -21 -10 -21 -6 0 -26 -16 -46 -35 -19 -19 -41
-35 -49 -35 -8 0 -15 -4 -15 -10 0 -30 103 26 116 63 3 9 10 17 15 17 12 0 12
27 -1 35 -5 3 -10 -3 -10 -14z"/>
<path d="M3440 2320 c-8 -11 -20 -20 -26 -20 -14 0 -23 -64 -30 -212 -5 -106
0 -124 25 -94 9 11 9 20 2 35 -16 29 -13 87 4 105 10 10 15 35 15 80 l0 66 30
0 c17 0 30 5 30 10 0 6 -9 10 -20 10 -11 0 -20 4 -20 9 0 12 37 24 50 16 5 -3
18 -1 27 4 14 8 8 10 -27 11 -34 0 -49 -5 -60 -20z"/>
<path d="M1430 2320 c0 -14 48 -62 78 -77 29 -16 62 -17 62 -3 0 6 -11 10 -24
10 -13 0 -26 7 -30 15 -3 8 -13 15 -21 15 -19 0 -45 23 -45 39 0 6 -4 11 -10
11 -5 0 -10 -5 -10 -10z"/>
<path d="M2620 2240 c0 -5 11 -10 25 -10 14 0 25 5 25 10 0 6 -11 10 -25 10
-14 0 -25 -4 -25 -10z"/>
<path d="M1580 2220 c0 -6 35 -10 85 -10 50 0 85 4 85 10 0 6 -35 10 -85 10
-50 0 -85 -4 -85 -10z"/>
<path d="M2710 2220 c0 -6 50 -10 130 -10 80 0 130 4 130 10 0 6 -50 10 -130
10 -80 0 -130 -4 -130 -10z"/>
<path d="M3010 2220 c0 -5 7 -10 15 -10 8 0 15 5 15 10 0 6 -7 10 -15 10 -8 0
-15 -4 -15 -10z"/>
<path d="M1780 2200 c-11 -7 -1 -10 35 -10 36 0 46 3 35 10 -8 5 -24 10 -35
10 -11 0 -27 -5 -35 -10z"/>
<path d="M1150 2130 c0 -16 5 -30 10 -30 6 0 10 14 10 30 0 17 -4 30 -10 30
-5 0 -10 -13 -10 -30z"/>
<path d="M2562 2070 c0 -14 2 -19 5 -12 2 6 2 18 0 25 -3 6 -5 1 -5 -13z"/>
<path d="M1220 1990 c0 -47 4 -80 10 -80 6 0 10 33 10 80 0 47 -4 80 -10 80
-6 0 -10 -33 -10 -80z"/>
<path d="M3430 2060 c0 -5 5 -10 10 -10 6 0 10 5 10 10 0 6 -4 10 -10 10 -5 0
-10 -4 -10 -10z"/>
<path d="M2580 2006 c0 -14 5 -26 10 -26 6 0 10 9 10 19 0 11 -4 23 -10 26 -6
4 -10 -5 -10 -19z"/>
<path d="M1150 1985 c0 -14 5 -25 10 -25 6 0 10 11 10 25 0 14 -4 25 -10 25
-5 0 -10 -11 -10 -25z"/>
<path d="M2006 1941 c-8 -23 5 -61 31 -88 14 -15 93 -17 93 -3 0 6 -13 10 -29
10 -16 0 -36 7 -45 15 -8 8 -19 15 -25 15 -5 0 -11 17 -13 38 -3 33 -4 35 -12
13z"/>
<path d="M3360 1875 c0 -50 4 -85 10 -85 6 0 10 35 10 85 0 50 -4 85 -10 85
-6 0 -10 -35 -10 -85z"/>
<path d="M2133 1937 c-49 -16 -40 -27 22 -27 30 0 55 -4 55 -10 0 -5 9 -10 21
-10 11 0 27 -7 35 -15 9 -9 34 -15 59 -15 25 0 50 6 59 15 8 8 21 15 30 15 8
0 18 5 21 10 3 6 22 10 41 10 40 0 45 15 9 24 -29 7 -75 -2 -75 -15 0 -5 -9
-9 -19 -9 -11 0 -21 -6 -24 -12 -5 -16 -99 -16 -105 1 -2 6 -10 11 -18 11 -8
0 -14 5 -14 10 0 6 -9 10 -19 10 -11 0 -23 5 -26 10 -7 11 -8 11 -52 -3z"/>
<path d="M2600 1912 c0 -20 -48 -52 -79 -52 -23 0 -26 -8 -10 -30 8 -11 12
-12 16 -2 2 6 14 12 25 12 21 0 48 22 48 39 0 6 5 11 10 11 6 0 10 9 10 20 0
11 -4 20 -10 20 -5 0 -10 -8 -10 -18z"/>
<path d="M1247 1904 c-10 -10 -9 -112 2 -118 11 -7 19 60 12 97 -3 16 -9 25
-14 21z"/>
<path d="M1270 1725 c0 -25 5 -45 10 -45 6 0 10 20 10 45 0 25 -4 45 -10 45
-5 0 -10 -20 -10 -45z"/>
<path d="M2110 1760 c0 -5 -13 -10 -30 -10 -16 0 -30 -4 -30 -10 0 -5 -11 -10
-24 -10 -14 0 -31 -7 -40 -15 -8 -8 -24 -15 -35 -15 -12 0 -21 -4 -21 -10 0
-5 -7 -10 -15 -10 -29 0 -80 -41 -135 -107 -6 -7 -10 -17 -10 -23 0 -5 -4 -10
-9 -10 -15 0 -23 -57 -16 -110 5 -40 11 -50 25 -50 16 0 19 -9 22 -57 3 -62
21 -79 26 -25 2 17 7 32 13 32 5 0 9 -4 9 -10 0 -5 5 -10 10 -10 6 0 10 18 10
40 0 22 7 57 15 77 8 19 15 53 15 74 0 32 4 39 19 39 11 0 22 6 25 13 5 10 7
10 12 0 7 -15 54 -17 54 -3 0 6 6 10 13 10 7 0 25 12 41 26 23 22 30 24 37 13
9 -14 16 -9 34 26 3 6 7 5 11 -2 7 -16 100 -18 109 -3 3 6 28 10 56 10 27 0
49 -4 49 -10 0 -14 104 -12 118 2 9 9 12 7 12 -10 0 -23 25 -31 33 -9 3 8 10
6 23 -8 44 -48 106 -70 117 -42 4 10 6 10 6 0 1 -7 6 -13 12 -13 19 0 41 -30
50 -68 7 -34 1 -61 -8 -34 -3 6 -20 12 -39 12 -19 0 -34 3 -34 8 0 8 -59 30
-102 39 -16 3 -28 9 -28 14 0 5 -79 9 -175 9 -110 0 -175 -4 -175 -10 0 -5
-11 -10 -25 -10 -32 0 -135 -32 -135 -42 0 -4 -14 -8 -31 -8 -30 0 -59 -19
-59 -39 0 -6 5 -11 10 -11 6 0 10 7 10 15 0 11 12 15 50 15 28 0 50 5 50 10 0
6 25 10 55 10 30 0 55 5 55 10 0 6 72 10 195 10 123 0 195 -4 195 -10 0 -5 11
-10 25 -10 14 0 37 -7 50 -16 16 -11 36 -14 55 -11 19 4 34 1 44 -8 8 -8 19
-15 25 -15 6 0 11 -20 11 -45 0 -43 1 -45 29 -45 25 0 30 -5 33 -27 2 -14 9
-28 16 -31 8 -3 12 12 12 50 0 42 4 57 20 68 31 22 29 125 -3 162 -13 15 -32
38 -43 52 -10 14 -24 26 -31 26 -7 0 -13 5 -13 11 0 14 -25 39 -39 39 -6 0
-11 5 -11 10 0 6 -11 10 -25 10 -14 0 -25 3 -25 8 0 8 -59 30 -102 39 -16 3
-28 9 -28 14 0 5 -16 9 -35 9 -19 0 -35 5 -35 10 0 11 -67 14 -72 3 -1 -5 -20
-21 -41 -36 -45 -34 -69 -31 -115 13 -26 24 -40 30 -77 30 -25 0 -45 -4 -45
-10z"/>
<path d="M3340 1690 c0 -46 3 -61 10 -50 5 8 10 31 10 50 0 19 -5 42 -10 50
-7 11 -10 -4 -10 -50z"/>
<path d="M1290 1615 c0 -25 5 -45 10 -45 6 0 10 20 10 45 0 25 -4 45 -10 45
-5 0 -10 -20 -10 -45z"/>
<path d="M3316 1594 c-9 -24 -7 -54 4 -54 6 0 10 16 10 35 0 38 -4 44 -14 19z"/>
<path d="M1317 1564 c-11 -11 -9 -74 3 -74 6 0 10 -8 10 -18 0 -10 7 -27 15
-38 8 -10 15 -27 15 -36 0 -10 5 -18 10 -18 6 0 10 -11 10 -25 0 -14 5 -25 10
-25 6 0 10 -9 10 -20 0 -11 4 -20 9 -20 5 0 17 -14 25 -32 13 -24 16 -66 16
-195 l0 -163 -30 0 c-17 0 -38 -6 -46 -12 -42 -36 -64 -60 -64 -73 0 -8 -4
-15 -10 -15 -5 0 -10 -17 -10 -37 0 -21 -7 -47 -15 -57 -8 -11 -15 -28 -15
-38 0 -10 -4 -18 -10 -18 -5 0 -10 -5 -10 -11 0 -17 -27 -39 -49 -39 -12 0
-21 -4 -21 -9 0 -5 -16 -12 -35 -15 -19 -4 -35 -11 -35 -16 0 -6 -9 -10 -20
-10 -11 0 -20 -4 -20 -10 0 -5 -7 -10 -15 -10 -8 0 -15 -4 -15 -8 0 -4 -15
-24 -32 -43 -35 -36 -96 -69 -128 -69 -11 0 -20 -4 -20 -10 0 -5 -16 -10 -35
-10 -19 0 -35 -4 -35 -10 0 -5 -7 -10 -16 -10 -14 0 -74 -51 -74 -64 0 -10
158 -7 162 3 2 5 158 11 367 13 284 2 365 0 369 -10 6 -20 22 -14 22 9 0 19
-21 49 -34 49 -10 0 -106 100 -106 110 0 6 -4 10 -8 10 -5 0 -15 12 -23 28 -8
15 -21 32 -29 38 -12 10 -12 17 5 48 11 20 23 36 27 36 5 0 8 16 8 35 0 19 4
35 8 35 5 0 12 71 15 158 9 198 17 282 29 282 11 0 38 -25 38 -35 0 -8 27 -35
35 -35 3 0 26 -20 49 -45 24 -25 49 -45 55 -45 7 0 22 -11 35 -25 13 -14 30
-25 37 -25 8 0 21 -9 29 -20 8 -11 18 -20 23 -20 5 0 15 -6 22 -12 36 -32 46
-38 65 -38 11 0 20 -3 20 -8 0 -4 16 -16 35 -26 19 -11 35 -23 35 -28 0 -4 11
-8 25 -8 14 0 25 -4 25 -10 0 -5 14 -10 30 -10 17 0 30 -4 30 -9 0 -4 25 -11
57 -14 31 -3 59 -10 62 -15 15 -25 371 0 423 28 10 6 27 10 38 10 11 0 20 5
20 10 0 6 11 10 25 10 14 0 25 4 25 9 0 5 20 17 45 28 25 10 45 21 45 26 0 4
6 7 14 7 8 0 31 16 50 35 20 19 38 35 41 35 16 0 195 179 195 195 0 11 51 57
57 51 4 -3 8 -53 11 -111 3 -58 9 -105 13 -105 5 0 9 -16 9 -35 0 -19 5 -35
10 -35 6 0 10 -11 10 -25 0 -14 5 -25 10 -25 6 0 10 -6 10 -14 0 -8 6 -21 13
-28 7 -7 20 -28 28 -45 7 -18 17 -33 21 -33 12 0 10 -138 -2 -145 -5 -3 -10
-17 -10 -30 0 -13 -4 -27 -10 -30 -5 -3 -10 -14 -10 -23 0 -10 -11 -26 -25
-36 -14 -10 -25 -27 -25 -37 0 -9 -6 -19 -12 -22 -41 -14 43 -18 428 -17 387
0 465 3 427 17 -7 3 -13 9 -13 14 0 11 -45 59 -56 59 -4 0 -14 8 -23 18 -23
25 -67 52 -86 52 -8 0 -15 5 -15 10 0 6 -7 10 -15 10 -8 0 -15 4 -15 9 0 5
-20 17 -45 28 -25 10 -45 21 -45 26 0 4 -9 7 -21 7 -11 0 -27 6 -34 12 -35 32
-45 38 -60 38 -8 0 -15 5 -15 10 0 6 -4 10 -10 10 -9 0 -110 97 -110 106 0 6
-15 24 -47 59 -13 13 -23 27 -23 30 0 10 -28 35 -39 35 -6 0 -11 5 -11 10 0 6
-9 10 -19 10 -11 0 -21 5 -23 11 -4 12 -73 39 -100 39 -10 0 -18 7 -18 15 0 8
-4 15 -10 15 -6 0 -10 48 -10 125 0 77 4 125 10 125 6 0 10 9 10 20 0 11 5 20
10 20 6 0 10 12 10 26 0 14 -4 23 -10 19 -5 -3 -10 -15 -10 -26 0 -10 -4 -19
-10 -19 -5 0 -10 -9 -10 -20 0 -11 -4 -20 -10 -20 -5 0 -10 -5 -10 -11 0 -6
-6 -17 -12 -24 -27 -30 -38 -44 -38 -50 0 -7 -14 -24 -47 -60 -13 -13 -23 -27
-23 -31 0 -9 -53 -54 -62 -54 -5 0 -8 -5 -8 -11 0 -13 -25 -39 -38 -39 -6 0
-27 -16 -46 -35 -20 -19 -43 -35 -51 -35 -8 0 -15 -4 -15 -10 0 -5 -7 -10 -15
-10 -8 0 -15 -3 -15 -7 0 -11 -58 -43 -76 -43 -8 0 -14 -4 -14 -10 0 -5 -7
-10 -16 -10 -13 0 -15 7 -10 33 4 17 11 34 16 35 12 4 13 92 1 92 -5 0 -12 16
-15 35 -7 34 -26 49 -26 20 0 -8 -4 -15 -10 -15 -5 0 -10 -7 -10 -16 0 -15
-43 -64 -57 -64 -3 0 -14 10 -24 21 -14 16 -26 20 -48 16 -24 -5 -36 1 -77 40
-27 27 -43 48 -36 51 13 4 17 72 4 72 -4 0 -12 15 -17 33 -7 22 -17 33 -32 35
-13 2 -23 8 -23 13 0 5 -13 9 -30 9 -16 0 -30 -4 -30 -10 0 -5 -9 -10 -19 -10
-20 0 -31 -18 -31 -51 0 -10 -4 -19 -10 -19 -15 0 -12 -68 3 -73 8 -3 5 -11
-10 -24 -13 -11 -23 -24 -23 -28 0 -16 -36 -34 -67 -35 -17 0 -33 -4 -35 -9
-1 -5 -15 -12 -29 -16 -21 -5 -32 -1 -53 20 -14 14 -26 35 -26 45 0 23 -9 25
-34 7 -15 -11 -17 -24 -13 -78 2 -35 8 -75 12 -88 l8 -23 -41 26 c-23 14 -48
26 -57 26 -8 0 -15 4 -15 9 0 5 -13 14 -29 21 -16 6 -38 23 -48 36 -10 13 -26
24 -35 24 -10 0 -18 5 -18 10 0 6 -5 10 -10 10 -11 0 -25 10 -65 48 -13 12
-29 22 -35 22 -5 0 -10 5 -10 11 0 11 -25 39 -35 39 -8 0 -55 47 -55 55 0 10
-28 35 -39 35 -6 0 -11 9 -11 20 0 11 -4 20 -10 20 -5 0 -10 7 -10 15 0 8 -3
15 -7 15 -11 0 -43 58 -43 76 0 8 -4 14 -10 14 -5 0 -10 11 -10 25 0 14 -4 25
-10 25 -5 0 -10 10 -10 23 0 13 -4 27 -10 33 -5 5 -13 26 -17 47 -5 21 -12 35
-16 31z"/>
<path d="M3290 1485 c0 -19 5 -35 10 -35 6 0 10 16 10 35 0 19 -4 35 -10 35
-5 0 -10 -16 -10 -35z"/>
<path d="M3270 1405 c0 -14 5 -25 10 -25 6 0 10 11 10 25 0 14 -4 25 -10 25
-5 0 -10 -11 -10 -25z"/>
</g>
</svg>
